<?xml version="1.0" standalone="no"?>
<!DOCTYPE svg PUBLIC "-//W3C//DTD SVG 20010904//EN"
 "http://www.w3.org/TR/2001/REC-SVG-20010904/DTD/svg10.dtd">
<svg version="1.0" xmlns="http://www.w3.org/2000/svg"
 width="2239.000000pt" height="2238.000000pt" viewBox="0 0 2239.000000 2238.000000"
 preserveAspectRatio="xMidYMid meet">

<g transform="translate(0.000000,2238.000000) scale(0.100000,-0.100000)"
fill="#000000" stroke="none">
<path d="M11015 18573 c-318 -23 -710 -106 -1065 -223 -589 -196 -1048 -465
-1437 -843 -451 -439 -842 -983 -1164 -1619 -347 -688 -484 -1187 -465 -1697
18 -497 129 -965 343 -1451 138 -312 297 -592 545 -962 159 -237 229 -330 273
-364 35 -26 165 -78 174 -69 4 4 -12 29 -351 550 -258 396 -324 507 -427 713
-144 286 -234 524 -304 797 -83 326 -107 524 -103 865 5 335 37 545 131 855
86 284 269 678 464 1005 119 198 373 580 489 735 441 590 988 1018 1614 1263
330 129 885 268 1258 313 154 19 479 17 620 -5 227 -34 568 -118 815 -202 574
-193 1040 -485 1388 -869 54 -60 120 -139 145 -175 26 -36 51 -68 57 -72 34
-25 98 18 98 67 0 73 -281 386 -513 572 -203 163 -393 281 -673 419 -416 204
-790 321 -1222 380 -114 15 -563 27 -690 17z"/>
<path d="M14280 17218 c-19 -5 -41 -15 -49 -23 -23 -23 59 -93 194 -164 283
-150 473 -288 671 -485 198 -199 326 -377 438 -611 146 -304 222 -600 233
-910 14 -391 -73 -735 -286 -1130 -29 -55 -62 -112 -73 -127 -21 -31 -70 -48
-108 -38 -44 11 -52 44 -39 177 27 291 -22 656 -146 1088 -75 259 -221 709
-253 775 -25 54 -53 93 -99 138 -35 34 -70 62 -78 62 -18 0 -33 -53 -28 -98 2
-18 23 -76 47 -130 265 -590 422 -1231 427 -1741 2 -169 -21 -215 -116 -235
-17 -4 -116 7 -225 24 -107 16 -253 35 -325 41 -177 15 -230 26 -264 55 -55
46 -57 59 -45 454 6 227 5 240 -21 395 -88 504 19 885 364 1297 95 114 110
146 91 204 -11 32 -15 35 -39 29 -35 -9 -67 -40 -173 -169 -342 -417 -456
-769 -389 -1208 97 -641 13 -1217 -258 -1784 -152 -317 -340 -601 -600 -909
-291 -344 -423 -522 -534 -720 -104 -186 -182 -415 -208 -610 -15 -115 -6
-349 19 -475 22 -111 20 -310 -3 -425 -34 -163 -134 -291 -289 -371 -71 -36
-74 -39 -49 -45 16 -4 73 -7 128 -8 159 -1 213 36 288 199 71 154 104 168 237
100 152 -77 282 -131 375 -155 416 -108 843 58 1083 420 71 107 144 278 150
351 4 53 2 63 -19 87 -13 14 -36 29 -51 33 -47 11 -72 -26 -102 -157 -15 -63
-43 -146 -62 -186 -89 -187 -255 -320 -474 -383 -57 -17 -113 -23 -230 -27
-183 -6 -313 11 -451 57 -158 53 -354 161 -375 208 -4 9 -9 123 -9 252 -1 142
-7 261 -15 300 -41 215 9 434 162 704 112 198 224 356 520 732 292 371 370
484 528 767 57 102 127 179 192 211 67 33 165 35 262 5 88 -27 124 -31 163
-18 40 13 63 44 63 85 0 48 -27 65 -120 75 -95 9 -225 37 -261 55 -64 32 -66
73 -9 248 66 203 109 235 268 198 49 -12 127 -24 173 -28 99 -7 140 -18 164
-44 20 -22 19 -31 -20 -175 -24 -93 -26 -111 -22 -245 7 -206 36 -304 189
-639 59 -129 72 -166 76 -221 3 -48 0 -75 -11 -96 -37 -72 -173 -158 -300
-190 -110 -27 -139 -88 -64 -135 25 -16 44 -19 87 -16 78 7 130 31 229 105 90
68 191 122 227 122 19 0 23 -7 28 -52 7 -59 5 -42 46 -461 53 -537 82 -650
258 -1002 99 -198 139 -261 213 -330 62 -58 109 -89 168 -110 l41 -14 -16 31
c-9 17 -68 122 -131 232 -307 536 -380 788 -427 1471 -3 39 -8 248 -12 465 -6
340 -4 411 10 513 37 258 93 411 250 677 181 307 240 429 309 645 48 151 73
249 99 401 29 171 32 561 5 719 -43 249 -109 452 -216 670 -221 447 -571 818
-1046 1106 -193 117 -256 139 -335 117z m698 -3597 c35 -5 70 -15 79 -22 23
-20 10 -86 -35 -183 -40 -84 -60 -105 -162 -170 -42 -28 -43 -29 -22 -37 15
-6 32 -29 48 -66 41 -95 48 -107 76 -123 25 -13 31 -13 73 8 l46 22 10 -27 c7
-20 4 -77 -11 -213 -11 -102 -23 -210 -26 -240 -4 -30 -10 -75 -13 -100 l-7
-45 -56 110 c-124 249 -197 448 -222 604 -34 209 0 455 67 490 22 11 40 10
155 -8z"/>
<path d="M12866 17008 c-52 -51 -60 -78 -75 -248 -25 -277 -103 -550 -232
-810 -121 -242 -212 -373 -464 -665 -151 -176 -219 -266 -283 -379 -111 -193
-147 -362 -120 -558 44 -319 -22 -518 -271 -813 -110 -131 -150 -194 -259
-410 -50 -99 -102 -197 -115 -218 l-23 -38 -114 173 c-85 130 -135 194 -199
258 -84 83 -206 166 -183 124 6 -11 56 -95 112 -189 168 -283 316 -587 395
-812 l32 -93 7 98 c25 342 145 604 493 1074 56 75 111 141 122 147 40 22 69
13 96 -27 57 -87 128 -307 154 -479 28 -184 6 -450 -54 -658 -47 -163 -218
-562 -369 -862 -82 -163 -100 -230 -100 -368 -1 -95 4 -136 22 -200 35 -123
128 -301 265 -507 142 -214 185 -292 221 -398 63 -188 35 -367 -84 -541 -23
-33 -40 -63 -37 -65 2 -2 35 12 74 31 206 103 287 338 203 589 -18 54 -140
267 -388 671 -109 178 -140 329 -108 515 20 113 62 221 167 431 152 304 253
579 305 824 26 119 28 149 28 350 1 176 -3 237 -17 305 -28 129 -63 241 -122
385 -104 257 -137 402 -136 619 0 259 65 469 214 694 36 53 129 171 207 262
356 411 491 639 595 1000 70 243 115 530 115 738 0 109 -7 114 -74 50z"/>
<path d="M9848 13955 c-121 -30 -224 -92 -345 -208 -190 -182 -316 -384 -369
-593 -57 -225 -32 -447 76 -669 144 -298 406 -457 839 -509 82 -10 121 -20
140 -34 25 -19 26 -23 25 -118 -2 -153 -77 -579 -195 -1114 -28 -124 -97 -443
-154 -710 -106 -495 -161 -744 -216 -975 -35 -147 -89 -271 -194 -445 -83
-137 -121 -165 -216 -158 -35 3 -66 11 -75 20 -13 13 -16 116 -20 814 l-5 799
-25 23 c-30 27 -54 28 -84 4 l-21 -17 -5 -760 c-3 -455 -9 -778 -15 -804 -21
-92 -69 -126 -269 -185 -63 -19 -148 -46 -189 -60 -50 -18 -96 -26 -139 -26
-58 0 -66 3 -94 31 l-31 30 7 123 c6 100 4 130 -8 160 -13 31 -19 36 -49 36
-67 0 -88 -60 -86 -247 3 -141 -4 -164 -61 -220 -38 -37 -85 -58 -284 -128
-427 -150 -876 -382 -1331 -685 -580 -387 -1127 -904 -1536 -1450 -414 -553
-716 -1156 -904 -1805 -71 -248 -155 -638 -155 -724 0 -35 30 -61 72 -61 32 0
52 27 63 80 42 218 170 715 234 908 142 431 360 875 618 1259 319 477 779 978
1243 1355 519 421 1107 753 1806 1018 461 176 852 290 1184 346 193 32 242 29
283 -16 l30 -33 -7 -108 c-12 -190 21 -290 157 -471 310 -413 707 -655 1261
-768 246 -50 545 -64 738 -35 338 51 608 242 783 553 1 1 32 -18 68 -42 114
-76 226 -107 367 -101 83 3 204 39 278 82 100 59 212 189 252 293 52 137 100
187 170 177 41 -5 444 -201 665 -322 565 -310 1011 -633 1470 -1063 419 -393
852 -938 1130 -1422 202 -352 436 -876 600 -1343 19 -55 46 -67 94 -43 36 19
47 50 33 97 -16 54 -224 580 -291 737 -548 1279 -1607 2410 -2956 3157 -473
262 -1072 502 -1600 640 -163 43 -203 63 -231 117 -48 92 27 526 182 1051 53
180 55 189 39 207 -44 48 -86 31 -135 -55 -34 -60 -51 -111 -110 -346 -89
-352 -148 -716 -165 -1024 -15 -259 -45 -296 -250 -310 -116 -7 -421 8 -597
31 -475 61 -945 193 -1581 446 -221 88 -227 91 -214 112 54 83 145 251 183
336 59 134 84 225 134 481 39 204 116 569 179 859 153 699 243 1150 281 1415
48 337 67 412 127 502 38 57 67 82 152 128 31 17 62 42 71 58 13 24 13 30 -1
55 -23 40 -81 35 -152 -12 -104 -69 -279 -131 -407 -144 -247 -24 -443 48
-626 232 -183 184 -260 387 -234 615 16 144 49 244 137 413 175 337 421 474
718 398 98 -25 211 -82 394 -199 79 -51 145 -91 147 -88 2 2 -10 48 -27 103
-37 118 -65 150 -206 230 -212 121 -395 160 -565 119z m-127 -5741 c106 -53
361 -151 553 -213 571 -186 1094 -271 1659 -271 201 0 229 -6 261 -52 36 -51
10 -190 -57 -311 -139 -248 -418 -381 -876 -418 -112 -9 -150 -8 -240 6 -433
67 -809 225 -1091 460 -145 121 -317 320 -368 427 -53 110 -77 288 -47 352 18
38 55 65 91 66 11 0 63 -21 115 -46z m2730 -94 c66 -12 104 -48 94 -89 -11
-43 -64 -119 -100 -141 -46 -28 -110 -27 -127 3 -14 26 -13 189 3 218 11 22
47 24 130 9z m555 -141 c68 -12 191 -69 224 -104 47 -50 6 -157 -104 -273 -84
-89 -166 -149 -267 -197 -140 -66 -240 -70 -326 -12 -54 37 -127 139 -147 207
-18 62 -5 94 52 127 26 15 82 60 126 100 92 84 171 129 259 148 78 17 109 18
183 4z"/>
<path d="M9948 13393 c-43 -50 -28 -84 72 -168 135 -113 148 -126 165 -161 32
-67 -2 -117 -133 -195 -147 -88 -322 -210 -339 -236 -24 -36 -8 -73 38 -89 36
-12 37 -12 160 70 68 45 185 120 259 166 162 101 240 172 240 216 0 50 -52
115 -183 227 -67 58 -143 124 -168 146 -50 45 -86 52 -111 24z"/>
<path d="M14551 11765 c-53 -61 -72 -111 -90 -238 -7 -47 -6 -78 1 -100 l11
-31 49 54 c57 63 125 195 132 257 4 32 0 47 -15 67 -28 35 -51 33 -88 -9z"/>
<path d="M14721 11546 c-16 -20 -58 -211 -72 -330 -7 -63 -10 -169 -6 -281 9
-288 41 -391 156 -506 72 -71 154 -118 256 -144 83 -21 125 -20 125 3 0 23
-26 47 -105 98 -89 56 -184 157 -227 240 -76 145 -85 258 -44 583 32 253 33
304 6 331 -23 23 -72 26 -89 6z"/>
<path d="M8282 11297 c-42 -45 -31 -77 61 -176 174 -189 212 -317 139 -471
-64 -134 -409 -417 -667 -547 -112 -57 -191 -87 -320 -124 -107 -30 -138 -53
-133 -97 5 -38 46 -48 144 -34 214 31 424 137 741 373 219 163 214 162 383 43
104 -72 149 -89 242 -89 43 0 82 5 88 11 22 22 -131 137 -298 224 -114 59
-139 93 -108 150 46 85 89 156 99 162 31 20 59 4 160 -90 111 -104 226 -187
286 -208 53 -18 65 -4 57 68 l-7 59 33 13 c18 8 166 60 328 116 162 56 299
106 303 110 13 12 -97 50 -162 56 -34 4 -85 0 -130 -10 -148 -31 -272 -111
-337 -216 -20 -33 -42 -60 -49 -60 -17 0 -119 73 -194 138 -35 31 -125 124
-199 207 -75 82 -176 191 -226 241 -50 50 -106 110 -124 133 -39 48 -76 54
-110 18z"/>
<path d="M14045 11129 c-93 -4 -226 -5 -295 -2 -118 5 -127 4 -152 -17 -22
-17 -28 -30 -28 -60 0 -27 5 -42 18 -49 9 -5 159 -8 344 -7 313 1 328 2 347
21 46 47 22 127 -37 123 -15 -1 -103 -5 -197 -9z"/>
<path d="M7816 9764 c-89 -20 -184 -58 -356 -144 -138 -69 -146 -76 -140 -120
3 -23 31 -50 51 -50 11 0 51 14 91 31 311 135 346 153 441 241 l62 57 -40 0
c-22 0 -71 -7 -109 -15z"/>
<path d="M7750 9439 c-30 -16 -72 -47 -93 -67 -70 -67 -207 -244 -207 -267 0
-29 40 -65 72 -65 33 0 51 16 140 130 82 105 126 173 151 238 29 74 21 78 -63
31z"/>
<path d="M7892 9130 c-85 -47 -147 -105 -256 -244 -57 -72 -118 -144 -135
-160 -52 -50 -36 -104 38 -126 26 -7 36 -5 56 13 56 51 258 336 307 435 28 56
49 104 47 107 -3 2 -28 -9 -57 -25z"/>
<path d="M7946 8808 c-13 -32 -49 -145 -106 -339 -32 -109 -45 -222 -33 -289
l9 -45 33 48 c78 114 143 283 190 499 17 82 18 90 2 120 -12 26 -23 34 -48 36
-29 3 -34 -1 -47 -30z"/>
<path d="M12360 6819 c-95 -29 -139 -104 -172 -292 -26 -154 -22 -187 36 -242
70 -68 191 -86 282 -44 117 55 224 205 224 313 0 99 -73 202 -174 247 -57 25
-146 33 -196 18z m186 -190 c63 -59 31 -167 -69 -240 -50 -36 -102 -39 -142
-7 -25 20 -27 25 -22 72 8 68 33 149 55 176 35 44 132 43 178 -1z"/>
<path d="M12762 5848 c-72 -27 -182 -131 -219 -206 -49 -99 -33 -202 40 -256
22 -16 46 -21 125 -24 230 -9 370 64 403 212 28 125 -52 236 -201 280 -68 20
-83 20 -148 -6z m176 -175 c49 -36 38 -123 -20 -154 -34 -18 -148 -29 -190
-18 -42 11 -53 33 -43 82 21 96 173 150 253 90z"/>
<path d="M13234 4900 c-82 -40 -190 -154 -235 -245 -91 -186 13 -318 251 -318
62 -1 84 4 126 26 101 51 149 144 147 279 -3 178 -60 266 -184 283 -36 5 -55
1 -105 -25z m130 -169 c11 -12 19 -43 22 -87 5 -58 2 -74 -15 -101 -28 -44
-75 -66 -141 -67 -77 0 -100 14 -100 65 0 79 50 155 125 190 51 24 88 24 109
0z"/>
<path d="M6442 4603 c-70 -286 -118 -551 -137 -758 -4 -38 -9 -81 -11 -95 -3
-14 -8 -132 -11 -262 l-6 -237 39 -6 c21 -4 46 -7 54 -8 12 -2 19 33 36 168
39 300 133 1015 154 1163 11 79 20 154 20 167 0 24 -22 35 -71 35 -26 0 -27
-4 -67 -167z"/>
<path d="M15789 4633 c-12 -13 -14 -116 -14 -572 l0 -556 36 -3 35 -3 17 68
c39 162 42 211 40 585 -1 201 -4 386 -7 409 -9 72 -72 115 -107 72z"/>
<path d="M13525 3921 c-109 -56 -251 -209 -308 -329 -24 -53 -29 -72 -25 -118
5 -59 28 -100 69 -122 34 -18 161 -10 233 16 174 63 336 221 336 327 0 48 -25
122 -55 161 -55 72 -175 103 -250 65z m133 -173 c16 -16 15 -63 -2 -96 -18
-35 -72 -85 -113 -106 -32 -16 -179 -44 -187 -35 -24 24 105 194 174 231 39
20 110 24 128 6z"/>
</g>
</svg>
